<svg width="77" height="61" viewBox="0 0 77 61" fill="none" xmlns="http://www.w3.org/2000/svg">
<g filter="url(#filter0_f_15_2)">
<path d="M27.6146 22.3217C26.9128 22.0266 22.7018 21.7315 22 22.6168C25.5091 39.141 40.2475 39.436 40.9493 38.8459C41.6512 38.2557 40.9493 34.1247 42.0021 33.8296C43.0548 33.5345 48.3185 38.5508 49.3713 38.8459C50.424 39.1409 54.635 38.8459 54.9859 37.9606C55.3368 37.0754 49.0204 31.7641 49.0204 31.1739C49.0204 30.5838 54.635 23.2069 54.2841 22.6168C53.9332 22.0266 49.0204 22.0266 48.3185 22.3217C47.6167 22.6168 42.7039 30.2887 41.6512 30.2887C40.5984 30.2887 41.6512 22.9118 40.9493 22.3217C40.2475 21.7315 33.9311 22.0266 33.5802 22.6168C33.2292 23.2069 34.6329 24.3872 34.9838 24.9774C35.3347 25.5675 34.9838 31.1739 33.9311 31.469C32.8783 31.7641 28.3164 22.6168 27.6146 22.3217Z" stroke="#00D5FF" stroke-width="3"/>
</g>
<g filter="url(#filter1_f_15_2)">
<path d="M23 16.5451C22 16.0451 16 15.5451 15 17.0451C20 45.0451 41 45.545 42 44.545C43 43.545 42 36.545 43.5 36.045C45 35.545 52.5 44.045 54 44.545C55.5 45.045 61.5 44.545 62 43.045C62.5 41.545 53.5 32.545 53.5 31.545C53.5 30.545 61.5 18.045 61 17.0451C60.5 16.0451 53.5 16.045 52.5 16.5451C51.5 17.0451 44.5 30.045 43 30.045C41.5 30.045 43 17.5451 42 16.5451C41 15.5451 32 16.0451 31.5 17.0451C31 18.0451 33 20.0451 33.5 21.0451C34 22.0451 33.5 31.5451 32 32.0451C30.5 32.5451 24 17.0451 23 16.5451Z" stroke="#00D5FF" stroke-width="3"/>
</g>
<path d="M23 17.5451C22 17.0451 16 16.5451 15 18.0451C20 46.0451 41 46.545 42 45.545C43 44.545 42 37.545 43.5 37.045C45 36.545 52.5 45.045 54 45.545C55.5 46.045 61.5 45.545 62 44.045C62.5 42.545 53.5 33.545 53.5 32.545C53.5 31.545 61.5 19.045 61 18.0451C60.5 17.0451 53.5 17.045 52.5 17.5451C51.5 18.0451 44.5 31.045 43 31.045C41.5 31.045 43 18.5451 42 17.5451C41 16.5451 32 17.0451 31.5 18.0451C31 19.0451 33 21.0451 33.5 22.0451C34 23.0451 33.5 32.5451 32 33.0451C30.5 33.5451 24 18.0451 23 17.5451Z" stroke="#A8F1FF" stroke-width="3"/>
<defs>
<filter id="filter0_f_15_2" x="0.386108" y="0.5" width="76.114" height="60" filterUnits="userSpaceOnUse" color-interpolation-filters="sRGB">
<feFlood flood-opacity="0" result="BackgroundImageFix"/>
<feBlend mode="normal" in="SourceGraphic" in2="BackgroundImageFix" result="shape"/>
<feGaussianBlur stdDeviation="10" result="effect1_foregroundBlur_15_2"/>
</filter>
<filter id="filter1_f_15_2" x="3.41736" y="4.5" width="70.1028" height="51.8062" filterUnits="userSpaceOnUse" color-interpolation-filters="sRGB">
<feFlood flood-opacity="0" result="BackgroundImageFix"/>
<feBlend mode="normal" in="SourceGraphic" in2="BackgroundImageFix" result="shape"/>
<feGaussianBlur stdDeviation="5" result="effect1_foregroundBlur_15_2"/>
</filter>
</defs>
</svg>
