<svg width="60" height="41" viewBox="0 0 60 41" fill="none" xmlns="http://www.w3.org/2000/svg">
<g filter="url(#filter0_f_15_2)">
<path d="M14.9966 6.54875C13.997 6.04539 7.99957 5.54202 7 7.05212C11.9979 35.2405 32.9889 35.7438 33.9885 34.7371C34.988 33.7303 33.9885 26.6833 35.4878 26.1799C36.9872 25.6765 44.484 34.2337 45.9833 34.7371C47.4827 35.2404 53.4801 34.7371 53.9799 33.227C54.4797 31.7169 45.4836 22.6563 45.4836 21.6496C45.4836 20.6429 53.4801 8.0588 52.9803 7.05212C52.4806 6.04543 45.4836 6.04535 44.484 6.54875C43.4844 7.05216 36.4874 20.1395 34.988 20.1395C33.4887 20.1395 34.988 7.55548 33.9885 6.54875C32.9889 5.54202 23.9927 6.04539 23.493 7.05212C22.9932 8.05884 24.9923 10.0723 25.4921 11.079C25.9919 12.0858 25.4921 21.6497 23.9927 22.153C22.4934 22.6564 15.9962 7.05212 14.9966 6.54875Z" stroke="#00D5FF" stroke-width="2"/>
</g>
<path d="M15 6.54508C14 6.04508 8 5.54508 7 7.04508C12 35.0451 33 35.545 34 34.545C35 33.545 34 26.545 35.5 26.045C37 25.545 44.5 34.045 46 34.545C47.5 35.045 53.5 34.545 54 33.045C54.5 31.545 45.5 22.545 45.5 21.545C45.5 20.545 53.5 8.04504 53 7.04508C52.5 6.04513 45.5 6.04504 44.5 6.54508C43.5 7.04513 36.5 20.045 35 20.045C33.5 20.045 35 7.54508 34 6.54508C33 5.54508 24 6.04508 23.5 7.04508C23 8.04508 25 10.0451 25.5 11.0451C26 12.0451 25.5 21.5451 24 22.0451C22.5 22.5451 16 7.04508 15 6.54508Z" stroke="#A8F1FF" stroke-width="2"/>
<defs>
<filter id="filter0_f_15_2" x="0.945557" y="0" width="59.0544" height="41" filterUnits="userSpaceOnUse" color-interpolation-filters="sRGB">
<feFlood flood-opacity="0" result="BackgroundImageFix"/>
<feBlend mode="normal" in="SourceGraphic" in2="BackgroundImageFix" result="shape"/>
<feGaussianBlur stdDeviation="2.5" result="effect1_foregroundBlur_15_2"/>
</filter>
</defs>
</svg>
